<?xml version="1.0" encoding="UTF-8" standalone="no"?>
<svg
   width="24"
   height="24"
   viewBox="0 0 24 24"
   fill="none"
   stroke="currentColor"
   stroke-width="2"
   stroke-linecap="round"
   stroke-linejoin="round"
   class="icon icon-tabler icons-tabler-outline icon-tabler-checkup-list"
   version="1.1"
   id="svg1232"
   sodipodi:docname="checkup-list.svg"
   inkscape:version="1.2.2 (b0a8486541, 2022-12-01)"
   xmlns:inkscape="http://www.inkscape.org/namespaces/inkscape"
   xmlns:sodipodi="http://sodipodi.sourceforge.net/DTD/sodipodi-0.dtd"
   xmlns="http://www.w3.org/2000/svg"
   xmlns:svg="http://www.w3.org/2000/svg">
  <defs
     id="defs1236" />
  <sodipodi:namedview
     id="namedview1234"
     pagecolor="#ffffff"
     bordercolor="#666666"
     borderopacity="1.0"
     inkscape:showpageshadow="2"
     inkscape:pageopacity="0.0"
     inkscape:pagecheckerboard="0"
     inkscape:deskcolor="#d1d1d1"
     showgrid="false"
     inkscape:zoom="23.291667"
     inkscape:cx="14.211091"
     inkscape:cy="12.021467"
     inkscape:window-width="1324"
     inkscape:window-height="699"
     inkscape:window-x="42"
     inkscape:window-y="32"
     inkscape:window-maximized="1"
     inkscape:current-layer="svg1232" />
  <path
     stroke="none"
     d="M0 0h24v24H0z"
     fill="none"
     id="path1220" />
  <path
     d="M9 5h-2a2 2 0 0 0 -2 2v12a2 2 0 0 0 2 2h10a2 2 0 0 0 2 -2v-12a2 2 0 0 0 -2 -2h-2"
     id="path1222"
     style="stroke:#e5931b;stroke-opacity:1" />
  <path
     d="M9 3m0 2a2 2 0 0 1 2 -2h2a2 2 0 0 1 2 2v0a2 2 0 0 1 -2 2h-2a2 2 0 0 1 -2 -2z"
     id="path1224"
     style="stroke:#e5931b;stroke-opacity:1" />
  <path
     d="M9 14h.01"
     id="path1226" />
  <path
     d="M9 17h.01"
     id="path1228" />
  <path
     d="M12 16l1 1l3 -3"
     id="path1230" />
</svg>
