<?xml version="1.0" encoding="UTF-8" standalone="no"?>
<svg
   width="24"
   height="24"
   viewBox="0 0 24 24"
   fill="none"
   stroke="currentColor"
   stroke-width="2"
   stroke-linecap="round"
   stroke-linejoin="round"
   class="icon icon-tabler icons-tabler-outline icon-tabler-users-group"
   version="1.1"
   id="svg1964"
   sodipodi:docname="user-3-1.svg"
   inkscape:version="1.2.2 (b0a8486541, 2022-12-01)"
   xmlns:inkscape="http://www.inkscape.org/namespaces/inkscape"
   xmlns:sodipodi="http://sodipodi.sourceforge.net/DTD/sodipodi-0.dtd"
   xmlns="http://www.w3.org/2000/svg"
   xmlns:svg="http://www.w3.org/2000/svg">
  <defs
     id="defs1968" />
  <sodipodi:namedview
     id="namedview1966"
     pagecolor="#ffffff"
     bordercolor="#666666"
     borderopacity="1.0"
     inkscape:showpageshadow="2"
     inkscape:pageopacity="0.0"
     inkscape:pagecheckerboard="0"
     inkscape:deskcolor="#d1d1d1"
     showgrid="false"
     inkscape:zoom="23.291667"
     inkscape:cx="9.8103757"
     inkscape:cy="12.021467"
     inkscape:window-width="1324"
     inkscape:window-height="699"
     inkscape:window-x="42"
     inkscape:window-y="32"
     inkscape:window-maximized="1"
     inkscape:current-layer="svg1964" />
  <path
     stroke="none"
     d="M0 0h24v24H0z"
     fill="none"
     id="path1950" />
  <path
     d="M10 13a2 2 0 1 0 4 0a2 2 0 0 0 -4 0"
     id="path1952"
     style="stroke:#0ca678;stroke-opacity:1" />
  <path
     d="M8 21v-1a2 2 0 0 1 2 -2h4a2 2 0 0 1 2 2v1"
     id="path1954"
     style="stroke:#0ca678;stroke-opacity:1" />
  <path
     d="M15 5a2 2 0 1 0 4 0a2 2 0 0 0 -4 0"
     id="path1956"
     style="stroke:#0ca678;stroke-opacity:1" />
  <path
     d="M17 10h2a2 2 0 0 1 2 2v1"
     id="path1958"
     style="stroke:#0ca678;stroke-opacity:1" />
  <path
     d="M5 5a2 2 0 1 0 4 0a2 2 0 0 0 -4 0"
     id="path1960"
     style="stroke:#0ca678;stroke-opacity:1" />
  <path
     d="M3 13v-1a2 2 0 0 1 2 -2h2"
     id="path1962"
     style="stroke:#0ca678;stroke-opacity:1" />
</svg>
